<?xml version="1.0" encoding="UTF-8"?>
<svg version="1.1" xmlns="http://www.w3.org/2000/svg" width="364" height="230">
<path d="M0 0 C-2.72998961 1.81999307 -5.37734982 3.05202364 -8.39379883 4.30810547 C-20.71763319 9.4536313 -30.91509996 16.21331315 -41 25 C-41.62519531 25.54011719 -42.25039063 26.08023437 -42.89453125 26.63671875 C-59.13927879 41.74014913 -70.29436333 65.13968553 -73 87 C-73.06388388 88.95740193 -73.08638169 90.91670147 -73.0625 92.875 C-73.05347656 93.84179688 -73.04445313 94.80859375 -73.03515625 95.8046875 C-73.02355469 96.52914062 -73.01195313 97.25359375 -73 98 C-72.79246094 96.75347656 -72.58492187 95.50695312 -72.37109375 94.22265625 C-67.23138188 65.10817417 -53.1129466 41.46233735 -28.84130859 24.24316406 C-11.0812055 12.25238642 10.56263594 5.88476141 32 7 C32 7.33 32 7.66 32 8 C30.76507813 8.14695312 29.53015625 8.29390625 28.2578125 8.4453125 C5.51596548 11.36580633 -14.85079859 18.32373613 -32 34 C-33.26070312 35.12148437 -33.26070312 35.12148437 -34.546875 36.265625 C-51.97574152 52.61195322 -61.77735347 75.68819226 -63.11914062 99.41967773 C-63.40655081 112.00968072 -60.34697551 129.31093966 -52.625 139.5 C-47.68072194 144.20883625 -42.93940328 145.65763889 -36.25 146.1484375 C-32.37522731 145.97146471 -28.84117075 145.09302359 -25.125 144.0625 C-18.09497145 142.11857478 -11.32006769 140.74236722 -4 142 C-0.20227623 144.62919338 1.1363305 146.58103083 2 151 C2.30316633 156.96227116 1.70483426 162.60259781 0.9375 168.5 C-0.51369813 178.93545572 -0.51369813 178.93545572 2.5625 188.8125 C11.18813075 196.55345068 22.55946137 197.38071559 33.6875 197.3125 C35.12706055 197.30512817 35.12706055 197.30512817 36.59570312 197.29760742 C59.30139505 196.92691001 82.12634899 188.3296568 99 173 C100.33804688 171.80117188 100.33804688 171.80117188 101.703125 170.578125 C118.95477654 154.29025287 129.80259018 131.78699957 130.7265625 107.94140625 C130.86191406 106.98041016 130.86191406 106.98041016 131 106 C131.66 105.67 132.32 105.34 133 105 C132.47585485 129.11067691 126.81410508 149.07699068 113 169 C113.33 169 113.66 169 114 169 C129.45883657 149.98532967 136.96978926 128.21102059 139 104 C139.33 104 139.66 104 140 104 C141.28597479 135.8993192 130.73759131 161.97773111 110 186 C125.21851459 174.50156676 134.73214217 156.23833616 142 139 C144.49164606 146.47493817 137.95408404 157.41728928 134.57861328 164.18457031 C124.28049837 184.03415701 109.2983715 201.43419516 90 213 C89.36900391 213.37850098 88.73800781 213.75700195 88.08789062 214.14697266 C68.78868792 225.52675035 48.74224817 230.43544647 26.4375 230.375 C25.68366028 230.37445618 24.92982056 230.37391235 24.15313721 230.37335205 C12.67669391 230.33526887 1.94482801 229.65855547 -9 226 C-9.66515625 225.79101074 -10.3303125 225.58202148 -11.015625 225.36669922 C-41.59566949 215.62806387 -66.36459609 194.15278988 -81.35351562 165.94238281 C-90.32932976 148.32541684 -94.62235828 129.995955 -94.4375 110.25 C-94.43445862 109.55511475 -94.43141724 108.86022949 -94.42828369 108.14428711 C-94.35469849 96.7277886 -93.42313665 85.9409218 -90 75 C-89.79101074 74.31631348 -89.58202148 73.63262695 -89.36669922 72.92822266 C-85.58357831 60.94408909 -79.85010624 48.86870499 -72 39 C-71.34 39.33 -70.68 39.66 -70 40 C-70.59167969 41.05316406 -71.18335937 42.10632812 -71.79296875 43.19140625 C-80.86091659 59.61770787 -87.40043568 76.96876765 -87 96 C-86.78085938 94.73027344 -86.56171875 93.46054688 -86.3359375 92.15234375 C-80.88793664 62.02516358 -65.77123236 34.81174038 -40.46191406 16.79956055 C-29.99873473 9.75318499 -13.02767482 -1.26074272 0 0 Z M-73 119 C-72 121 -72 121 -72 121 Z " fill="#42AE6B" transform="translate(94,0)"/>
<path d="M0 0 C4.76884567 -0.07425143 9.5373536 -0.12864936 14.30664062 -0.16479492 C15.92844506 -0.17986565 17.55020884 -0.20032593 19.171875 -0.22631836 C21.50531046 -0.26277829 23.83820631 -0.27974314 26.171875 -0.29296875 C26.89493835 -0.30845261 27.61800171 -0.32393646 28.36297607 -0.33988953 C31.52095252 -0.34094122 33.67576737 -0.18125985 36.45825195 1.37426758 C38.54324412 3.57283652 38.50574087 4.88150069 38.4375 7.875 C38.255577 12.04710083 37.77958624 14.74117475 35 18 C32.16018991 20.54854752 29.41811767 22.35262694 26 24 C26.42152344 24.83144531 26.84304687 25.66289063 27.27734375 26.51953125 C27.82519531 27.60621094 28.37304688 28.69289063 28.9375 29.8125 C29.48277344 30.89144531 30.02804688 31.97039062 30.58984375 33.08203125 C32 36 32 36 33 39 C28.05 39 23.1 39 18 39 C18 38.34 18 37.68 18 37 C18.66 37 19.32 37 20 37 C19.6390625 36.15695313 19.278125 35.31390625 18.90625 34.4453125 C18.4421875 33.34960938 17.978125 32.25390625 17.5 31.125 C16.80390625 29.48917969 16.80390625 29.48917969 16.09375 27.8203125 C15 25 15 25 15 23 C11.7 23 8.4 23 5 23 C4.66496236 25.29141812 4.33201958 27.58314263 4 29.875 C3.814375 31.15117188 3.62875 32.42734375 3.4375 33.7421875 C2.95563408 36.78252468 2.95563408 36.78252468 3 39 C-1.29 39 -5.58 39 -10 39 C-10 38.34 -10 37.68 -10 37 C-9.34 37 -8.68 37 -8 37 C-7.63648437 35.52853516 -7.63648437 35.52853516 -7.265625 34.02734375 C-6.92726157 32.66401825 -6.58870496 31.30074069 -6.25 29.9375 C-6.07243164 29.22029785 -5.89486328 28.5030957 -5.71191406 27.76416016 C-4.79836985 24.09954737 -3.85874535 20.4465235 -2.84375 16.80859375 C-2.66038086 16.14674072 -2.47701172 15.4848877 -2.28808594 14.80297852 C-1.77610927 12.96855033 -1.2554725 11.13654564 -0.734375 9.3046875 C-0.01596995 6.07186477 0.05414404 3.29529822 0 0 Z M10 7 C9.01 9.97 8.02 12.94 7 16 C9.56314499 16.08132187 12.12368418 16.14064175 14.6875 16.1875 C15.7693457 16.22520508 15.7693457 16.22520508 16.87304688 16.26367188 C21.45863857 16.3264882 24.37587659 15.87430477 28 13 C29.05901922 11.02077346 29.05901922 11.02077346 29 9 C27.00896808 6.56164332 27.00896808 6.56164332 23.0859375 6.8046875 C21.51550649 6.81799624 19.94513779 6.84186398 18.375 6.875 C17.17230469 6.88853516 17.17230469 6.88853516 15.9453125 6.90234375 C13.96341477 6.92593777 11.98167019 6.96180935 10 7 Z " fill="#42AE6B" transform="translate(127,45)"/>
<path d="M0 0 C3.3640249 2.90942694 4.76489781 4.92102493 5.2734375 9.41796875 C5.52850386 16.3734323 4.59801121 20.70532042 0 26 C-5.28692917 31.64623503 -11.24445236 35.01277385 -19.0625 35.375 C-24.67692152 34.84029319 -28.49636309 33.62234509 -32.375 29.4375 C-35.56765824 24.64851264 -35.57433197 20.6684068 -35 15 C-33.13162055 8.32381612 -28.59162856 3.86405045 -23 0 C-15.56953132 -4.13292341 -7.26416781 -4.73015578 0 0 Z M-23.609375 10.58203125 C-26.12303901 13.70998955 -26.96030271 15.70227031 -27.5 19.75 C-27.26516504 22.94107443 -27.26516504 22.94107443 -25.625 24.875 C-22.06509729 27.33954803 -19.65847705 27.15647295 -15.45703125 26.640625 C-10.62800202 25.38154584 -6.39904092 22.29098611 -3.79296875 18.0234375 C-2.58883206 14.95081285 -2.76297513 12.25909193 -3 9 C-4.61640789 5.92040412 -4.61640789 5.92040412 -6.8828125 5.34765625 C-13.73232537 4.47655096 -18.60379922 5.66150166 -23.609375 10.58203125 Z " fill="#42AE6B" transform="translate(201,51)"/>
<path d="M0 0 C-0.66 3.3 -1.32 6.6 -2 10 C-2.66 10 -3.32 10 -4 10 C-4 9.34 -4 8.68 -4 8 C-11.26 8 -18.52 8 -26 8 C-26.33 10.31 -26.66 12.62 -27 15 C-24.89551062 14.85890014 -22.7914123 14.71195825 -20.6875 14.5625 C-18.92986328 14.44068359 -18.92986328 14.44068359 -17.13671875 14.31640625 C-13.97409042 14.1132629 -13.97409042 14.1132629 -11 13 C-11.45822468 16.46941546 -11.89131683 19.67395049 -13 23 C-13.99 22.67 -14.98 22.34 -16 22 C-18.22574335 21.77548542 -20.45581519 21.59217122 -22.6875 21.4375 C-23.86699219 21.35371094 -25.04648437 21.26992187 -26.26171875 21.18359375 C-27.61716797 21.09271484 -27.61716797 21.09271484 -29 21 C-29.33 23.31 -29.66 25.62 -30 28 C-22.41 28 -14.82 28 -7 28 C-7.66 30.97 -8.32 33.94 -9 37 C-19.89 36.67 -30.78 36.34 -42 36 C-41.01 33.03 -40.02 30.06 -39 27 C-38.03824771 23.78760051 -37.17275968 20.55341787 -36.3125 17.3125 C-36.08755859 16.49716797 -35.86261719 15.68183594 -35.63085938 14.84179688 C-34.45566271 10.42320031 -33.8475992 6.60831 -34 2 C-32.09605202 0.09605202 -28.72605832 0.75613993 -26.19140625 0.68359375 C-25.1685276 0.6524221 -25.1685276 0.6524221 -24.12498474 0.62062073 C-21.93759555 0.555063 -19.75008164 0.49624795 -17.5625 0.4375 C-16.09048198 0.39431477 -14.61847648 0.35070048 -13.14648438 0.30664062 C-2.74663421 0 -2.74663421 0 0 0 Z " fill="#42AE6B" transform="translate(323,48)"/>
<path d="M0 0 C0.680625 0.433125 1.36125 0.86625 2.0625 1.3125 C1.72228036 4.48788332 1.03783396 5.33526865 -1.375 7.5625 C-3.9375 9.3125 -3.9375 9.3125 -5.9375 9.3125 C-6.0921875 8.384375 -6.0921875 8.384375 -6.25 7.4375 C-6.81275373 4.94723516 -6.81275373 4.94723516 -9.9375 3.3125 C-15.53000394 2.49226609 -20.20857498 3.08823294 -24.9375 6.3125 C-28.29931865 9.52815262 -29.78196162 11.31014152 -30.5 15.9375 C-30.18066714 19.31495473 -30.18066714 19.31495473 -28.3125 21.6875 C-25.28531449 23.75873219 -23.6262921 24.24290015 -19.9375 24.3125 C-14.61649845 23.18352228 -10.41129918 21.69250766 -6.9375 17.3125 C-5.6175 19.9525 -4.2975 22.5925 -2.9375 25.3125 C-11.28390591 30.07563217 -18.73566288 33.58276268 -28.484375 31.86328125 C-33.39961492 30.47384251 -36.18418363 28.7866391 -38.9375 24.3125 C-40.95089176 20.28571649 -40.56178752 15.3922048 -39.2890625 11.15234375 C-35.9922871 3.84026497 -30.86089911 -0.14668678 -23.5 -3.0625 C-14.40673724 -6.03553666 -8.34554105 -4.79424699 0 0 Z " fill="#42AE6B" transform="translate(247.9375,53.6875)"/>
<path d="M0 0 C-0.54087318 3.78611227 -2.11722332 5.55400767 -5 8 C-5.66 8 -6.32 8 -7 8 C-7.0825 7.38125 -7.165 6.7625 -7.25 6.125 C-7.79717042 3.86856704 -7.79717042 3.86856704 -9.78125 2.89453125 C-14.24271963 1.09580494 -18.78961473 1.10896234 -23.2578125 2.91015625 C-27.72041306 5.47079975 -30.44771003 7.92918611 -32 13 C-31.93139716 16.49874493 -31.71282532 18.2343728 -29.3125 20.8125 C-25.80893754 22.61162667 -22.9354559 23.46009855 -19.01171875 22.52734375 C-14.69169862 21.03852325 -11.41737766 19.09699851 -8 16 C-6.4375 18.8125 -6.4375 18.8125 -5 22 C-6 25 -6 25 -8.1171875 26.3515625 C-15.96215599 29.9740267 -23.80989546 32.62112563 -32.375 29.9375 C-36.21788315 28.15838743 -39.26985724 25.94663902 -41 22 C-42.00417498 16.1082477 -41.74533838 10.58809577 -38.33203125 5.55859375 C-27.35571906 -7.28465718 -13.73015854 -9.15343903 0 0 Z " fill="#42AE6B" transform="translate(364,55)"/>
<path d="M0 0 C0.66 0 1.32 0 2 0 C2 0.66 2 1.32 2 2 C6.07530467 1.8816491 10.15038235 1.75739376 14.2253418 1.62768555 C15.61135983 1.58439782 16.99742906 1.54271836 18.38354492 1.50268555 C20.37691798 1.44483416 22.37010565 1.38070224 24.36328125 1.31640625 C25.56251221 1.27974854 26.76174316 1.24309082 27.99731445 1.20532227 C31.04994349 1.12266975 31.04994349 1.12266975 34 0 C33.34 2.97 32.68 5.94 32 9 C29.22003893 9 26.57507433 8.78702071 23.8125 8.5 C22.46091797 8.36078125 22.46091797 8.36078125 21.08203125 8.21875 C20.39496094 8.1465625 19.70789063 8.074375 19 8 C14.86051876 21.83816551 14.86051876 21.83816551 13 36 C9.37 36 5.74 36 2 36 C2.43957031 34.72253906 2.87914062 33.44507813 3.33203125 32.12890625 C5.00272578 27.11682267 6.37390935 22.05296328 7.6875 16.9375 C7.91244141 16.07189453 8.13738281 15.20628906 8.36914062 14.31445312 C8.91551056 12.21034762 9.45815403 10.10527504 10 8 C4.06 8.495 4.06 8.495 -2 9 C-1.125 1.125 -1.125 1.125 0 0 Z " fill="#42AE6B" transform="translate(254,48)"/>
</svg>
